<svg xmlns="http://www.w3.org/2000/svg" viewBox="0 0 209.16 50.14"><defs><style>.cls-1{fill:#418fde;}</style></defs><title>UNOCHA_logo_horizontal_blue_RGB</title><g id="Layer_2" data-name="Layer 2"><g id="logo"><path class="cls-1" d="M68.14,26.11C68.14,16,75.5,8.23,85.88,8.23S103.62,16,103.62,26.11,96.27,44,85.88,44,68.14,36.21,68.14,26.11Zm30.58,0c0-7.45-5-13.55-12.84-13.55s-12.83,6.1-12.83,13.55,5,13.56,12.83,13.56S98.72,33.57,98.72,26.11Z"/><path class="cls-1" d="M134,16.45a10.48,10.48,0,0,0-8.23-3.89c-7.64,0-12.69,6.1-12.69,13.84,0,7.17,4.76,13.27,12.69,13.27a10.48,10.48,0,0,0,8.9-4.57L138.53,38a15.83,15.83,0,0,1-12.88,6c-10.82,0-17.5-9-17.5-17.6,0-10.57,7.26-18.17,17.74-18.17,4.47,0,9.18,1.68,11.92,5.29Z"/><path class="cls-1" d="M144.11,9.09h4.62V23.23h17.64V9.09H171V43.14h-4.62V27.56H148.73V43.14h-4.62Z"/><path class="cls-1" d="M190.41,9.09h4.19l14.56,34.05h-5.38l-3.41-8.42H184.16l-3.36,8.42h-5.39Zm8.27,21.59-6.34-15.62h-.1L185.8,30.68Z"/><path class="cls-1" d="M24.6,20.78a4.71,4.71,0,0,1,4.72-4.71h0A4.72,4.72,0,0,1,34,20.78h0a4.72,4.72,0,0,1-4.71,4.71h0v-.6a4.1,4.1,0,0,0,4.11-4.11h0a4.1,4.1,0,0,0-4.11-4.11h0a4.11,4.11,0,0,0-4.12,4.11h0a4.11,4.11,0,0,0,4.12,4.11h0v.6a4.71,4.71,0,0,1-4.72-4.71Z"/><path class="cls-1" d="M20.86,20.78a8.47,8.47,0,0,1,8.46-8.47h0a8.47,8.47,0,0,1,8.46,8.47h0a8.47,8.47,0,0,1-8.46,8.46h0v-.59a7.9,7.9,0,0,0,7.87-7.87h0a7.9,7.9,0,0,0-7.87-7.87h0a7.88,7.88,0,0,0-7.87,7.87h0a7.89,7.89,0,0,0,7.87,7.87h0v.59a8.46,8.46,0,0,1-8.46-8.46Z"/><path class="cls-1" d="M16.77,20.78A12.54,12.54,0,0,1,29.32,8.24h0A12.54,12.54,0,0,1,41.86,20.78h0A12.55,12.55,0,0,1,29.32,33.32h0v-.6A12,12,0,0,0,41.26,20.78h0a12,12,0,0,0-11.94-12h0a12,12,0,0,0-11.95,12h0a12,12,0,0,0,12,11.94h0v.6A12.54,12.54,0,0,1,16.77,20.78Z"/><path class="cls-1" d="M12.87,20.78A16.44,16.44,0,0,1,29.32,4.33h0A16.45,16.45,0,0,1,45.78,20.78h0A16.45,16.45,0,0,1,29.32,37.23h0v-.59A15.88,15.88,0,0,0,45.18,20.78h0A15.87,15.87,0,0,0,29.32,4.92h0A15.87,15.87,0,0,0,13.46,20.78h0A15.88,15.88,0,0,0,29.32,36.64h0v.59A16.44,16.44,0,0,1,12.87,20.78Z"/><path class="cls-1" d="M8.55,20.78A20.78,20.78,0,0,1,29.32,0h0A20.78,20.78,0,0,1,50.09,20.78h0A20.77,20.77,0,0,1,29.32,41.55h0V41A20.19,20.19,0,0,0,49.49,20.78h0A20.22,20.22,0,0,0,29.32.59h0A20.23,20.23,0,0,0,9.14,20.78h0A20.2,20.2,0,0,0,29.32,41h0v.6A20.77,20.77,0,0,1,8.55,20.78Z"/><polygon class="cls-1" points="29.01 16.37 29.01 0.3 29.61 0.3 29.61 16.37 29.01 16.37 29.01 16.37"/><polygon class="cls-1" points="14.64 6.51 15.06 6.09 26.41 17.45 25.99 17.87 14.64 6.51 14.64 6.51"/><polygon class="cls-1" points="8.84 21.08 8.84 20.49 24.9 20.49 24.9 21.08 8.84 21.08 8.84 21.08"/><polygon class="cls-1" points="14.64 35.03 25.99 23.7 26.41 24.12 15.06 35.46 14.64 35.03 14.64 35.03"/><polygon class="cls-1" points="29.01 41.25 29.01 25.19 29.61 25.19 29.61 41.25 29.01 41.25 29.01 41.25"/><polygon class="cls-1" points="32.23 24.12 32.65 23.7 44 35.03 43.58 35.46 32.23 24.12 32.23 24.12"/><polygon class="cls-1" points="33.73 21.08 33.73 20.49 49.79 20.49 49.79 21.08 33.73 21.08 33.73 21.08"/><polygon class="cls-1" points="32.23 17.45 43.58 6.09 44 6.51 32.65 17.87 32.23 17.45 32.23 17.45"/><path class="cls-1" d="M26.16,22.11c.18,0,.15.14.21.24h.08A2,2,0,0,0,27,21.3s.07-.06.07-.08c0-.18-.23-.24-.32-.39-.1.27-.38.05-.58.18,0,0,0,.08,0,.1s.18,0,.21.06a.23.23,0,0,1,0,.28s-.07,0-.07,0c-.1-.21-.27-.18-.46-.18.08.07-.07.05,0,.09a2.28,2.28,0,0,0-.78.08.35.35,0,0,1-.25-.12c-.09.1-.2.29-.34.24s-.14-.14-.08-.17a.9.9,0,0,0,.34-.33c.06-.12,0-.25.07-.37s.19-.29.34-.28.45.14.59,0,.15.09.21.16,0,.06,0,.08-.25.11-.31.26a.16.16,0,0,0,.09.21c.12.05.16-.12.22-.2s.14,0,.21,0,0-.06,0-.06a1.41,1.41,0,0,1,.46,0c.18,0,.08-.37.07-.58a.86.86,0,0,1,0-.16.28.28,0,0,1,0-.09c.05-.11.28-.15.32,0a.27.27,0,0,0,0,.12c0,.06,0,.1.12.06a.1.1,0,0,0,.05-.06c0-.07,0-.18.06-.22s.16.11.27.12a.41.41,0,0,0,.33,0c.08-.05.08-.14,0-.24s-.09-.05-.1,0-.24.08-.35.08-.15-.12-.24-.19-.22.08-.33,0a.18.18,0,0,1-.1-.26.75.75,0,0,1,.16-.13c.13-.06.29-.06.36-.18a.79.79,0,0,0,.1-.34c0-.06.07-.06.11-.07s.33,0,.46-.08a2.73,2.73,0,0,0,.42-.3,1.15,1.15,0,0,1,.23-.1c.05,0,.07-.09.08-.12,0-.26,0-.5,0-.77,0-.07.13-.12.07-.19s-.12,0-.15,0-.11-.15,0-.21.21,0,.26-.1a.28.28,0,0,0-.1-.4c-.14-.07-.29.06-.45,0,0,.06-.07.08-.09.08-.2.07-.22-.18-.18-.31s0-.05,0,0S28,16,28,16h-.14c-.17.08-.25.27-.43.36a.08.08,0,0,0,0,.08s0,.06.06,0,0,.3-.15.25c0,0,0,0,0-.05s-.16-.06-.18,0,.22.18.16.31-.34.21-.54.3c-.42.17-.85,0-1.29.08a1.58,1.58,0,0,1-.71-.06c-.18,0-.21.12-.3.24s0-.05-.05,0,0-.16,0-.25-.12-.06-.15-.12c-.29-.54-1-.48-1.52-.39-.1,0-.14.11-.2.18s-.26,0-.38.06-.07.11-.12.12-.33-.12-.47,0a1.14,1.14,0,0,1-.3.13s0,.1,0,.16-.09,0-.11,0-.37,0-.4.18h.06a.36.36,0,0,1-.19.43c-.19.07-.39.05-.57.12a.48.48,0,0,0-.24.2A3.49,3.49,0,0,0,19.22,20V20s.06.07.06.09c-.29.6-.47.91-.8,1.49-.14.24-.3.81-.06,1s-.06.34-.24.36-.52-.05-.6-.29-.23-.13-.37-.15h-.09a1.91,1.91,0,0,0-.48,0c-.25.07-.27.37-.39.57s-.37.13-.45.3,0,.2,0,.31-.15.07-.17.15a.94.94,0,0,1-.06.15,1.32,1.32,0,0,0-.05.68.5.5,0,0,0,0,.18.87.87,0,0,1-.13.65c-.15.23-.43.23-.69.31-.11.05-.24-.06-.37,0-.29,0-.57-.07-.85,0l-.09.07c-.15.06-.2-.1-.28-.17s-.09-.23-.18-.28a.45.45,0,0,0-.52.18c.08,0,0,.09.06.09-.18,0-.32.17-.46.24s-.23-.23-.25-.43-.18-.16-.32-.09a.19.19,0,0,0,0,.11c-.05,0-.08-.05-.12,0s.09.13.16.21,0,.09-.06.12-.16,0-.17,0S11.11,26,11,26s0,0,0,.05,0,.05.05,0-.15.07-.2,0,0-.14-.07-.23-.08,0-.08,0,0,.19-.14.2c0,.05,0,.14,0,.15s.18,0,.25,0a.88.88,0,0,1,.13.46s0,0,0,0,0,.3-.07.2,0-.3-.06-.43-.11,0-.18,0c.09.21-.1.44.09.65s-.23.23-.12.34a.65.65,0,0,0,.27.15s0-.11,0-.15.17-.11.2,0a.4.4,0,0,1,0,.18.31.31,0,0,0-.21,0c.06.14,0,.24,0,.37s0,.09,0,.12.22,0,.27.1-.08.15,0,.25.14,0,.18.08,0,.12,0,.2.17.07.14.16.09-.06.09-.12c.17,0,.1-.16.12-.3-.06,0-.06-.09-.12,0,0-.1,0-.2,0-.29s-.19-.12-.21-.25a.24.24,0,0,0,.29-.14c0-.06.15,0,.19.12s0,0,0,.08.11.07.15.12.12.18.22.22a1.18,1.18,0,0,0,.46,0c0-.08,0-.15,0-.17s.1.07.19.08a.32.32,0,0,0,.16.35.41.41,0,0,1,.11,0c.05,0,.07.12.15.14s.1,0,.14,0,.08.08.09.16,0,0,0,.06c.15,0,.31,0,.35.14s.2.33.28.49.18.12.2.19a.17.17,0,0,0,.08.12.71.71,0,0,0,.38.18c.05,0,.13-.08.21-.12a.14.14,0,0,1,.11,0c.13.22.16.51.38.63s.14.2.25.23.15-.06.22,0,.06.12.1.13a.48.48,0,0,1,.31.34.1.1,0,0,0,.06.09c.14,0,.26-.08.34,0s.24.14.33.24.11.07.13,0,0-.14,0-.18.15-.05.22-.08.11-.22.21-.22.24.18.38.26.07,0,.09.06.08.36.26.38.33.19.52.22a1.76,1.76,0,0,1,.4.16.18.18,0,0,0,.16,0l.22-.11c.19-.12.43-.13.62-.25a.64.64,0,0,1,.13-.1c.31-.14.65.12,1,0,.07,0,.18,0,.28-.1a.6.6,0,0,0,.19-.63,4.09,4.09,0,0,0-.49-1,4.89,4.89,0,0,0-.41-.37s-.13,0-.19-.06-.11-.21-.09-.33-.13,0-.16-.09,0-.18,0-.26,0-.07-.05-.07a1.7,1.7,0,0,0-.54-.09c-.06,0-.11-.06-.16-.09s0-.09,0-.1a1.2,1.2,0,0,1,.37-.2c-.05-.07-.06-.16,0-.19a.25.25,0,0,0,0-.27.09.09,0,0,0-.1-.08c0-.18.12-.31,0-.46s-.26-.23-.3-.41c0,0-.09-.07-.09-.1a2.79,2.79,0,0,0,0-.65c0-.08-.13-.19-.05-.25a.72.72,0,0,1,.18-.1c.15,0,.19-.15.12-.25s-.22,0-.33,0a.09.09,0,0,1-.06-.1c0-.09.06-.22,0-.27a.35.35,0,0,1-.16-.13c-.07-.11,0-.23.07-.34s0-.08-.08-.05.06-.24,0-.34-.12-.22-.24-.17,0,0,0,0a.12.12,0,1,1-.21-.11c.05-.06.15,0,.2-.08s0-.24,0-.29a.43.43,0,0,1-.19-.44c-.17,0-.43-.05-.42-.29a2.34,2.34,0,0,0-.09-.63.44.44,0,0,1,.06-.42s.06-.09.11-.1c.22,0,.49,0,.62-.19s-.09-.39,0-.49.57,0,.85-.21a.26.26,0,0,0,0-.28,1.37,1.37,0,0,0-.16-.32c-.09-.14-.32-.07-.38-.22a.3.3,0,0,1,0-.23.51.51,0,0,1,.26-.26.79.79,0,0,1,.7.09A.66.66,0,0,1,21,20a.42.42,0,0,1,0,.1,1.54,1.54,0,0,1,.07.84c0,.09-.16.15-.13.28.07-.06.1,0,.1.06,0,.19.17.46,0,.58s-.19,0-.41,0-.18,0-.17.08a.32.32,0,0,0,.14.2,10.51,10.51,0,0,0,1.29.25c.11,0,.2.16.33.18s.21.07.31-.06.14,0,.15,0,.09.1.16.13.1.49.32.36.21,0,.34,0a.34.34,0,0,0,.06.47c.1.13.24.18.37.3a.14.14,0,0,0,.26-.07c0-.16-.15-.35.05-.49.2.28-.05.63.15.89l0,.06c.1.12.17.24.3.23s.13-.12.18-.22a.15.15,0,0,1,0-.08,1.55,1.55,0,0,1,.08-.23c.05-.13.2-.23.18-.37s0-.1,0-.14a.36.36,0,0,1,.42-.29c.05,0,0,0,.06-.07s.06-.25.14-.34A1.77,1.77,0,0,0,26,22.4s.09-.11.07-.18S26.09,22.12,26.16,22.11Z"/><path class="cls-1" d="M20.23,21.77a.14.14,0,0,0-.19,0A.14.14,0,0,0,20,22a.56.56,0,0,1,.09.21,3,3,0,0,0,0,.43c0,.11.17.31.24.18s.21-.37.12-.54S20.41,21.87,20.23,21.77Z"/><path class="cls-1" d="M20,23a.91.91,0,0,1,.07.14c0,.12.23.06.3,0a.17.17,0,0,0-.05-.16c-.05-.06-.14,0-.19-.08s-.07-.05-.09,0A.16.16,0,0,0,20,23Z"/><path class="cls-1" d="M20.29,23.56a.19.19,0,0,0-.34-.15c-.18.15,0,.43.17.63l.08.16a.16.16,0,0,0,.24,0,1.4,1.4,0,0,1,.09-.17C20.59,23.84,20.5,23.56,20.29,23.56Z"/><path class="cls-1" d="M19.86,22.43s-.05,0-.06,0-.11.09-.13.17a.37.37,0,0,0,.1.31s.09,0,.12-.09S19.87,22.56,19.86,22.43Z"/><path class="cls-1" d="M20.45,23.29a.14.14,0,0,0,.08-.15.15.15,0,0,0,.16-.06s0-.07,0-.11-.2.08-.29.16S20.41,23.33,20.45,23.29Z"/><path class="cls-1" d="M20.31,24.56c0,.11,0,.18.07.2s.11,0,.11,0,.05-.13,0-.19,0,0,0,0S20.35,24.61,20.31,24.56Z"/><path class="cls-1" d="M20.68,25.6c0-.08.1-.17,0-.25h-.13A.26.26,0,0,0,20.68,25.6Z"/><path class="cls-1" d="M11.68,29.12a.25.25,0,0,0,0,.19s.15,0,.22,0S11.86,29,11.68,29.12Z"/><path class="cls-1" d="M12.61,30.06c-.08.15.1.3.31.32,0-.07,0-.16,0-.21S12.65,30,12.61,30.06Z"/><path class="cls-1" d="M13,30.62a.38.38,0,0,0,.34.47A.37.37,0,0,0,13,30.62Z"/><path class="cls-1" d="M27.29,23.38a2.53,2.53,0,0,1,.8-.14c.62,0,.58-.81.9-1.31.07-.12,0-.39-.13-.52-.21-.34-.87,0-1-.31s.44.12.49-.19a.23.23,0,0,0-.11-.22.31.31,0,0,0-.31,0c-.34.28-.4.76-.57,1.08-.36.61-1,1.06-1.33,1.74-.06.1,0,.19.11.22C26.59,23.89,26.91,23.46,27.29,23.38Z"/><path class="cls-1" d="M29.83,21.85a.46.46,0,0,0-.23.12.4.4,0,0,0,0,.32s.17.05.2,0,0-.16-.1-.2C29.78,22,29.86,22,29.83,21.85Z"/><path class="cls-1" d="M28,24c.2.23.7.16.65-.07a.53.53,0,0,0-.62-.24C27.83,23.72,28.23,23.89,28,24Z"/><path class="cls-1" d="M28.61,25.83c.2-.08.1-.28.13-.45a.55.55,0,0,0-.36.45A.59.59,0,0,0,28.61,25.83Z"/><path class="cls-1" d="M31.19,22.09a.25.25,0,0,0,0-.21c-.05,0-.14,0-.22,0a.27.27,0,0,1-.14-.22c0-.13-.12-.22-.08-.36a.22.22,0,0,0-.1.32C30.79,21.82,30.88,22.15,31.19,22.09Z"/><path class="cls-1" d="M27.78,20.33c-.09,0-.16,0-.09.1s.14,0,.21,0S27.85,20.35,27.78,20.33Z"/><path class="cls-1" d="M11.12,25.75c0-.06,0-.1-.08-.15s-.13,0-.18-.05,0,.12,0,.16A.16.16,0,0,0,11.12,25.75Z"/><path class="cls-1" d="M12.1,25.75c.09-.05.23-.09.16-.24s0,0,0,0-.36-.05-.33.13A.14.14,0,0,0,12.1,25.75Z"/><path class="cls-1" d="M28.19,15.83c0-.1.19-.12.17-.22s-.11,0-.15,0-.06.1-.06.19,0,0,0,0S28.17,15.84,28.19,15.83Z"/><path class="cls-1" d="M28.68,15.63s.12-.09,0-.15a.18.18,0,0,0-.18,0C28.47,15.53,28.58,15.71,28.68,15.63Z"/><path class="cls-1" d="M27.16,19.39c-.06.16.24.36.38.27a.21.21,0,0,0-.05-.34C27.39,19.26,27.2,19.29,27.16,19.39Z"/><path class="cls-1" d="M27.5,20.47c.07-.06,0-.14-.05-.17s-.16,0-.25,0-.05,0-.08,0a.09.09,0,0,0,.08.11C27.32,20.38,27.42,20.54,27.5,20.47Z"/><path class="cls-1" d="M27.06,20.78a.17.17,0,0,0,0,.26.17.17,0,0,0,.25-.08c0-.1.1-.23,0-.3S27.17,20.71,27.06,20.78Z"/><path class="cls-1" d="M26.77,20.38c0,.14-.07.29,0,.43s.13.05.15,0,0-.25.1-.34-.08-.06-.08,0,0-.07,0-.1S26.84,20.38,26.77,20.38Z"/><path class="cls-1" d="M28.67,28.26h0Z"/><path class="cls-1" d="M37.63,30.35s0,0,0,0a0,0,0,0,1-.06,0Z"/><path class="cls-1" d="M29.41,24.94c-.06,0-.05-.05-.06-.06s-.1-.06-.12-.13-.14.07-.24.06a.06.06,0,0,0,0,.08c.09.12,0,.17-.09.26s.09.1.12.2-.07.21-.05.33a1.86,1.86,0,0,0-.14.19s-.07.11,0,.16.26-.11.35-.13a.23.23,0,0,0,.18,0c.11-.06.21-.1.25-.22s-.17-.06-.22-.06c.08-.21,0-.27,0-.5C29.33,25.07,29.44,24.94,29.41,24.94Z"/><path class="cls-1" d="M30.26,27.63s.06,0,.07,0a.18.18,0,0,0,.05-.25c0-.06-.16-.06-.17,0A.29.29,0,0,0,30.26,27.63Z"/><path class="cls-1" d="M30.39,27.22c.08,0,0-.11,0-.16s-.1,0-.11,0S30.27,27.26,30.39,27.22Z"/><path class="cls-1" d="M31.23,27.65s0,0,0,0-.15-.05-.24,0l-.13,0c0,.07,0,.17.05.19A.38.38,0,0,0,31.23,27.65Z"/><path class="cls-1" d="M32.68,27.51s0-.13,0-.14-.23.11-.36.06a.15.15,0,0,1,0,.12h-.09C32.31,27.73,32.53,27.56,32.68,27.51Z"/><path class="cls-1" d="M33.23,27c.05.22.3.11.33,0s-.15-.11-.2,0a.25.25,0,0,1,0-.07C33.33,26.93,33.21,26.93,33.23,27Z"/><path class="cls-1" d="M40,22.51c0,.12.17.15.27.18s.34,0,.38-.1-.18-.42-.4-.4S40,22.37,40,22.51Z"/><path class="cls-1" d="M40,29.72c-.07,0-.2,0-.2,0-.17.7-.81,1.66,0,2.13.34.21.76-.21.81-.43A1.49,1.49,0,0,0,40,29.72Z"/><path class="cls-1" d="M37.88,26.64c-.11.06-.13.31,0,.31a.35.35,0,0,0,.2-.1c.06-.07.06-.17,0-.19S37.94,26.6,37.88,26.64Z"/><path class="cls-1" d="M38.39,33.8a.25.25,0,0,0,.06.34c0-.1.2-.23,0-.34A.07.07,0,0,0,38.39,33.8Z"/><path class="cls-1" d="M41.62,17.27a.14.14,0,0,0-.16.08c0,.09,0,.2,0,.3-.23.63-1,1.2-.62,1.91,0,0,0,0,.06,0a1.36,1.36,0,0,0,.44-.52,9.43,9.43,0,0,0,.54-1.38C41.88,17.51,41.82,17.29,41.62,17.27Z"/><path class="cls-1" d="M40.44,19.79a.1.1,0,0,0,.15.13c.09,0,.14-.17.06-.19A.15.15,0,0,0,40.44,19.79Z"/><path class="cls-1" d="M33.25,15.44c-.08-.26-.29,0-.46,0s-.1-.1-.14-.1a.28.28,0,0,0-.16.06.12.12,0,0,0,.09.22c.08,0,.14-.13.18-.05s0,.38.24.33.23-.13.38-.15.17-.17.15-.28c.16,0,.34-.15.44,0s.06.14.1.2.15.13.27.14.27,0,.38-.14a.25.25,0,0,0,0-.39c-.06,0-.16,0-.22,0s-.2-.16-.31-.21C33.74,14.86,33.49,15.22,33.25,15.44Z"/><path class="cls-1" d="M34.47,15.75h0Z"/><path class="cls-1" d="M31.83,15.63a1.48,1.48,0,0,1,.42,0v0c0-.24-.25-.21-.38-.12s0,0,0,0-.11,0-.14,0S31.76,15.66,31.83,15.63Z"/><path class="cls-1" d="M32.34,16.58a1.64,1.64,0,0,1,.6-.44s0-.05,0-.08a.36.36,0,0,1,0,.07.41.41,0,0,0-.22-.23c0,.09-.11.15-.16.19a1.06,1.06,0,0,0-.32.31c0,.1-.06.26,0,.33S32.31,16.63,32.34,16.58Z"/><path class="cls-1" d="M30.19,15.18c0,.07,0,.15,0,.17s.11-.14.05-.18S30.2,15.13,30.19,15.18Z"/><path class="cls-1" d="M25.14,12a1.48,1.48,0,0,0,.55.09s.13-.11.08-.18-.25,0-.34-.13h-.08c-.15-.05-.19.09-.27.16S25.14,12,25.14,12Z"/><path class="cls-1" d="M38,14.33c-.06.09-.18.05-.29.09s-.06.13,0,.17.24.06.39,0c0,.05,0,.05.06.06s.1-.11.17-.06,0,.11,0,.12-.1.15-.19.19a.15.15,0,0,1-.22-.07h-.06c0,.08,0,.21,0,.24s-.56.28-.39.51.42.12.65.1c0,0,.06,0,0-.06,0-.22.1-.26.24-.37s0-.12-.11-.18,0-.16.07-.16.09-.12.17-.09V14.7c.14,0,.25-.08.22-.2s-.18-.29-.13-.46a.2.2,0,0,1,.15-.15.06.06,0,0,0,0-.1h-.07c0,.06-.09,0-.06.08a1.22,1.22,0,0,0-.43.08C38,14,38.1,14.21,38,14.33Z"/><path class="cls-1" d="M36.51,15.76c0,.17.2.08.29,0s0-.06-.06-.06S36.59,15.76,36.51,15.76Z"/><path class="cls-1" d="M38.62,15.43c-.1.14.17.14.28.08v0s0,0,0-.05S38.65,15.38,38.62,15.43Z"/><path class="cls-1" d="M39.05,14.72s-.09,0-.13,0,.06.16.16.14a.11.11,0,0,1,0-.06S39.07,14.73,39.05,14.72Z"/><path class="cls-1" d="M35.92,9a.56.56,0,0,1,.26.29c.06.16,0,.35,0,.5s.08.11.11.15,0,.2,0,.3a4,4,0,0,1,.1.57c.07,0,.07.13.17.09a2,2,0,0,0,.08.33c0,.13.18.06.27.15a1.72,1.72,0,0,0,.46.51c.07,0,.16,0,.19.1s0,.07,0,.07c.27.05.65.19.52.51.1-.07.22-.12.25-.24a.86.86,0,0,0,0-.61c0-.1-.2-.16-.23-.27a.54.54,0,0,1,0-.22c0-.12-.15-.08-.18-.13s-.12-.38.15-.36c0,0,0,0,0-.1a1.22,1.22,0,0,1-.27,0c-.06,0-.06-.1-.06-.12s.05-.34-.08-.44-.27-.1-.38-.18a1.57,1.57,0,0,0-.3-.2c-.06-.05-.19.06-.24,0-.22-.25-.38-.55-.59-.83a.45.45,0,0,0-.39-.07s0,.06,0,.08h.05S35.9,9,35.92,9Z"/><path class="cls-1" d="M34.61,9.49a.23.23,0,0,0,0,.35,1.06,1.06,0,0,0,.51,0c.09,0,.15-.11.2-.2s.33-.06.51-.13c0,.11.06.1.12.15,0-.12,0-.29-.09-.35s-.17-.24-.26-.39-.11,0-.11.05c0,.25-.19.21-.37.28a.21.21,0,0,1,0,.08H35.1s-.05,0-.05-.11-.21,0-.24.06S34.67,9.41,34.61,9.49Z"/><path class="cls-1" d="M31.28,4c-.15-.29-.39-.56-.33-.93A1.88,1.88,0,0,0,32.23,3c.32-.09.7.07,1-.14,0,0,0-.14,0-.22-.37.17-.67-.31-1-.1A4.31,4.31,0,0,1,30.94,3c-.34.08-1.22,0-1.26.52A1.44,1.44,0,0,1,31,4C31,4,31.17,4,31.28,4Z"/><path class="cls-1" d="M32.73,6.07a1,1,0,0,0,.57.35c0-.11,0-.17-.1-.23A.58.58,0,0,0,32.73,6.07Z"/><path class="cls-1" d="M32.4,6.77c-.08,0,0,.15.09.21C32.47,6.88,32.6,6.68,32.4,6.77Z"/><path class="cls-1" d="M32.06,6.35a.11.11,0,0,0,.08,0s0,0,0-.06-.15-.19-.28-.2,0,.1,0,.11S32,6.29,32.06,6.35Z"/><path class="cls-1" d="M33.32,8s.06,0,.08,0a.11.11,0,0,0,0-.13v0c0-.05,0-.12,0-.16s-.06,0-.07,0S33.32,7.86,33.32,8Z"/><path class="cls-1" d="M33.78,8a.16.16,0,0,0,0,.15.07.07,0,0,0,.08,0,.09.09,0,0,1,0-.09C33.87,7.92,33.8,8,33.78,8Z"/><path class="cls-1" d="M33.6,8.32c0,.07.09,0,.11-.11v0l0,0,0-.05h0c-.06-.08-.18-.14-.25-.06S33.56,8.2,33.6,8.32Z"/><path class="cls-1" d="M33.77,8.37s-.06,0,0,.05a.31.31,0,0,0,.34.14c.05,0,.11-.14.06-.17s-.21,0-.32,0Z"/><path class="cls-1" d="M34.43,8.66c.06,0,0-.08,0-.11s-.07-.15-.13-.1-.09.15,0,.19A.14.14,0,0,0,34.43,8.66Z"/><path class="cls-1" d="M34.64,9.06s.11,0,.14-.06,0-.05,0-.08.05,0,.05,0a.09.09,0,0,0-.05-.13s-.09.05-.13,0,0,0,0,0-.11-.06-.14,0a.15.15,0,0,0,0,.19A1.07,1.07,0,0,0,34.64,9.06Z"/><path class="cls-1" d="M34.26,9.37a.06.06,0,0,0,.06-.06.25.25,0,0,0,0-.17s0,0-.07,0,0,.09-.09.1S34.21,9.36,34.26,9.37Z"/><path class="cls-1" d="M33.88,2.33l0,0s0,0,0,0-.15,0-.23,0S33.78,2.41,33.88,2.33Z"/><path class="cls-1" d="M38.66,5.8c.07.08.24,0,.32.08s.14.24.28.24A.16.16,0,0,0,39.43,6a.59.59,0,0,0-.3-.6,2.39,2.39,0,0,0-.65-.06c-.14,0-.14.16-.08.22A1.55,1.55,0,0,0,38.66,5.8Z"/><path class="cls-1" d="M44.46,13.14c-.15-.19-.16-.4-.26-.55s-.32-.16-.44-.33.05-.23,0-.3-.11-.08-.12-.12a.7.7,0,0,0-.34-.43c.05-.23-.16-.34-.38-.4,0,0,0-.08,0-.1s-.12-.12-.19-.15h-.1a3.26,3.26,0,0,1-.32-.39c-.06-.21-.26-.33-.43-.44s-.12-.21-.16-.21-.28,0-.3-.13S41.17,9.17,41,9s0-.63-.13-.95c0-.13-.17-.13-.3-.13a.14.14,0,0,1-.11-.09c-.11-.19,0-.41-.15-.59s-.42-.49-.63-.76-.3-.12-.46-.13a.34.34,0,0,1-.11-.07c-.05,0-.07-.1-.1-.16a.9.9,0,0,0-.44-.29,4,4,0,0,0-.92-.11,1,1,0,0,0-.7.23,1.67,1.67,0,0,1-.74.29c-.1,0,0,.15,0,.23S36,6.7,36,6.8s0,0,0,0,.16,0,.24,0,.13.12.19.17a1.57,1.57,0,0,1,.33.4c0,.06-.08.17,0,.23s.12.29.12.48.17,0,.2,0a.53.53,0,0,1,.21.63.64.64,0,0,0,0,.39c.11.22.13.53.34.69,0-.07.1-.16.14-.15s.18-.11.29-.18c.33-.23.61.22.7.47s0,.58.12.83a1,1,0,0,0,.48.57c.06,0,.07.18.12.29s.09.15.18.08,0-.15.12-.19a.24.24,0,0,1,.2.07c.22.26.27.82.71.78a.14.14,0,0,0,.08.14c.09,0,.16-.1.22,0s.1.23.2.28.31,0,.46,0a.53.53,0,0,1,.25.24l.16.21c.3.28.41.72.77.94.11.08.21.21.37.17s0-.07.06-.08a.42.42,0,0,0,.3-.23,1.32,1.32,0,0,1,.46-.37v-.07c.13-.1.3-.13.42-.25S44.51,13.19,44.46,13.14Z"/><path class="cls-1" d="M38.8,12.48a.19.19,0,0,1,.09,0H39Z"/><path class="cls-1" d="M38.54,13.27c.05.09.18.11.27.17s.16.22.25.27.11-.21.2-.31.13,0,.16,0,0-.39-.16-.53-.2-.28-.37-.34a.16.16,0,0,0-.21.08c-.09.13,0,.31-.06.44S38.51,13.19,38.54,13.27Z"/><path class="cls-1" d="M39.61,13.93a5.47,5.47,0,0,0,0,.82c0,.14-.24.11-.32.24a.36.36,0,0,0-.07.27c0,.18.25.17.38.24a2,2,0,0,1,.85.78c.07.11.1.28.21.38s.29.1.32.29a.15.15,0,0,0,.21.05.42.42,0,0,0,0-.58.48.48,0,0,1-.16-.28,2.17,2.17,0,0,0-.33-1.07c-.13-.19-.36-.28-.49-.45s-.06-.1,0-.15.14-.15.16-.26-.2-.27-.25-.46H40l.11,0C39.89,13.71,39.66,13.74,39.61,13.93Z"/><path class="cls-1" d="M41.64,15.83c0-.1,0-.23,0-.35s-.24-.25-.42-.25-.17,0-.19.07a.4.4,0,0,0,.05.27c.33.37.3.91.44,1.34,0,.18.36,0,.41-.15a.61.61,0,0,0,0-.3c0-.09-.13-.16-.16-.27S41.66,16,41.64,15.83Z"/><path class="cls-1" d="M41.12,14.62c-.14.11.06.23,0,.39h.06c.1,0,.1-.07.12-.12-.18,0-.15-.17-.14-.27S41.14,14.6,41.12,14.62Z"/><path class="cls-1" d="M41.05,14.23c0-.09,0-.19-.12-.2,0,.14-.16.11-.24.18s0,.21.12.25,0,0,0,0c.2.09.35-.07.27-.27Z"/><path class="cls-1" d="M40.35,13.55c.18.11,0,.3.15.36s.29.1.38,0,0-.19-.15-.2,0-.11,0-.19a.12.12,0,0,1-.08,0c-.15-.1.12-.17,0-.3s0-.08,0-.09a.11.11,0,0,0-.14.07c0,.05,0,.12,0,.19S40.28,13.5,40.35,13.55Z"/><path class="cls-1" d="M40.25,12.68c-.08,0-.21,0-.28-.1s-.07,0-.1,0,0,0,0,.05-.1.11-.05.16a.64.64,0,0,1,.13.17c0,.09.19,0,.22.08a.1.1,0,0,0,.15.07c.07,0,0-.15,0-.21s0-.08,0,0S40.33,12.7,40.25,12.68Z"/><path class="cls-1" d="M30.26,19.18h.06a.16.16,0,0,1,0-.1s0-.11-.05-.15-.15,0-.12.1h.05A.17.17,0,0,0,30.26,19.18Z"/><path class="cls-1" d="M41.3,17.4a.61.61,0,0,0-.53.12c-.34.18-.38.64-.6.88a.63.63,0,0,1-.52.24.14.14,0,0,1-.11-.1c0-.1,0-.2,0-.29a.75.75,0,0,0,.19-.17.66.66,0,0,0,0-.48.64.64,0,0,0-.71-.44c-.3.06-.47.37-.64.64h-.06c-.11-.14-.26-.21-.34-.36a.06.06,0,0,1,0-.08c.12.06.23.24.36.17s0-.24-.08-.27-.21-.14-.34-.13-.2-.13-.23-.24-.06-.38-.2-.43a2.07,2.07,0,0,1-.45-.17c-.06,0-.15,0-.22,0s0-.16,0-.16c.19,0,.42,0,.31-.22s-.15-.2-.27-.12-.1,0-.12.07,0,.08,0,.11.06.22,0,.27-.28.07-.43.18h-.09c-.13-.05-.33-.19-.39-.13s-.1.25-.21.3-.21.05-.31.1-.07.28,0,.44a.13.13,0,0,1,0,.18c-.12.07-.15-.08-.18-.14a1.57,1.57,0,0,1-.09-.48c0-.17.19-.27.24-.43a.33.33,0,0,0,0-.32.29.29,0,0,0-.31-.14c-.3.08-.39.6-.69.47s-.29-.22-.45-.3-.19-.13-.3-.05a3.78,3.78,0,0,1-.69.36,1.29,1.29,0,0,0-.49.54c-.12.28-.63.43-.79.11a.48.48,0,0,0-.43-.28c-.16,0-.22.24-.4.28a.21.21,0,0,1-.25-.12.14.14,0,0,1,0-.09,2.6,2.6,0,0,1,.79-.46c.15-.05.17-.21.12-.35a.42.42,0,0,0,0-.1c0-.08,0-.2-.05-.2a1.14,1.14,0,0,0-.86.63s-.05.12-.08.12c-.23,0-.47.11-.67,0,0,0-.1-.3-.13-.27s-.15.22-.24.33-.09.08-.12.14.12.41.06.57-.25.09-.39.12-.07.14-.07.23.09.07.14.09.15.37.32.45.47,0,.73.1a.52.52,0,0,1,.36.32c0,.09.18.13.18.27a.23.23,0,0,0,.14.13c.07,0,.17-.05.25,0s.06.17.09.26,0,.35.14.52-.07.23-.15.32-.14,0-.15.09a.46.46,0,0,0,.07.4c.05.07.14,0,.16.05a5.32,5.32,0,0,1,.29.5c.05.05.1.13.17.15a.12.12,0,0,0-.08.15c.05.06.16.1.21,0a2,2,0,0,0,.28-.16c0-.05.14,0,.19-.09s.12.19.07.24-.36,0-.51.14-.21,0-.26.11,0,.17.09.18c.33.07.07.55-.09.79,0,.06,0,.15,0,.25a.12.12,0,0,1-.11.07c-.32,0-.64-.09-.93,0-.1,0-.15.17-.2.28h.06c-.09,0-.09.1-.1.15s0,.17-.05.22a1.84,1.84,0,0,0-.37,1.06c0,.11.13.18.2.18s.19-.09.26-.09.11.24.17.33.27.13.29,0,0-.28.08-.39-.12-.26-.15-.4a.36.36,0,0,1,.11-.34c.05-.05.14,0,.17.09s0,.19.06.28-.05.21,0,.28a.3.3,0,0,1,.06.24s-.06.07-.09.13,0,.25-.06.29-.09.21-.2.22-.56-.12-.48-.4c-.1,0-.2,0-.25.08s0,.29-.07.38a4.06,4.06,0,0,1-.26.36s.05,0,0,.08a2,2,0,0,1-.46.34s0,0,0,0-.29-.05-.34.08.14.23.2.37,0,.2-.11.21a1.23,1.23,0,0,1-.54,0c0,.06-.05.05-.05.07s0,.29-.13.44,0,.23.11.32.12.26.22.28.15.09.22.09a.42.42,0,0,0,.33-.27c0-.1.19,0,.3,0a.37.37,0,0,0,.11,0c.08-.1,0-.24,0-.3A2.52,2.52,0,0,1,30,27a.33.33,0,0,1,.3-.09c.09,0,.16.08.25.12a1.94,1.94,0,0,1,.24.15.81.81,0,0,0,.13.06c.15.06.24.25.4.34s0-.06.07,0a.63.63,0,0,0-.1-.38,2.83,2.83,0,0,0-.37-.33.16.16,0,0,1,0-.2s.07,0,.07,0a1.59,1.59,0,0,0,.27.12c.18.08.14.35.32.44s.14.18.25.2a.36.36,0,0,0,.42-.15c.05-.1,0-.15-.12-.21s.07-.15.13-.23,0-.25,0-.39,0-.08.05-.11a0,0,0,0,1,0,0c.08-.17,0-.35.07-.5s.07,0,.07,0a.19.19,0,0,0,.21.1.56.56,0,0,0,.33-.21.26.26,0,0,1,.42.07c0,.11,0,.26-.1.29a1.81,1.81,0,0,0-.73.29.6.6,0,0,0-.08.08.27.27,0,0,0-.1.35c0,.06-.07.13-.14.2.11,0,.11.17.21.19A.48.48,0,0,0,33,27a.3.3,0,0,0,0-.23c.12,0,.2-.13.32-.15a.33.33,0,0,1,.33.45s-.08,0-.1.06c-.13.2-.23.4-.43.49s-.7.12-1,.28c-.11.08-.14.26-.3.31s-.31.11-.46,0v0c0,.1-.32,0-.48,0s0-.18-.08-.23-.17,0-.19-.05,0-.11,0-.12c-.37-.07-.71.05-1.09,0-.1,0-.09.12-.17.18s-.14.1-.21.13a.62.62,0,0,1-.49.12,2.65,2.65,0,0,1-.44.09c-.24.05-.37.24-.56.38a.77.77,0,0,1-.49.11c-.05,0,0,.07-.06.07a1.27,1.27,0,0,0-.63.66c0,.08,0,.18,0,.25a3.27,3.27,0,0,1-.39.58.11.11,0,0,0,0,.1c.2.28.45.47.65.76.05.08.15.08.18.15s.2.34.29.51a.67.67,0,0,0,.78.24c.11,0,.23.07.33.09a1.77,1.77,0,0,0,1-.06c.47.15,1-.06,1.4.15.08,0,.08.18.15.28a1.4,1.4,0,0,0,.39.52,1.33,1.33,0,0,0,.58.19c.06,0,.07.15.12.21s0,.21.11.27.19.17.19.32-.21.32-.09.54,0,.19,0,.23a7.79,7.79,0,0,0,.85.76s.09.07.07.14.14.16.22.23,0,.2.1.29a3.15,3.15,0,0,0,.36.37c.16.15.39.12.59.16a.48.48,0,0,0,.16.08.59.59,0,0,0,.55,0c.09-.08.18-.23.27-.28a1.1,1.1,0,0,1,.55-.14A.16.16,0,0,0,36,36.4c0-.11.13-.17.12-.28a.92.92,0,0,0,.37-.14,4.14,4.14,0,0,0,.64-.56c.23-.21.6-.11.72-.35s0-.54.06-.81a1.19,1.19,0,0,0,.15-.41,4.09,4.09,0,0,0,0-.7c0-.14-.15-.28-.13-.41s.18-.1.21-.18.16-.38.26-.56.09-.05.14-.09,0-.16,0-.25-.1-.1-.13-.14a1.65,1.65,0,0,0-.72-.69c-.08,0-.08-.11-.12-.18s0-.11,0-.15-.06-.13-.08-.19h.08a0,0,0,0,1,0,0,1.19,1.19,0,0,1,.33-.51s.16,0,.17-.09a.66.66,0,0,0-.05-.48c-.12-.21,0-.42,0-.61a2.85,2.85,0,0,0-.2-1.09.22.22,0,0,0-.28-.15c-.07,0-.06.09-.1.15a.68.68,0,0,0-.08.22c0,.13-.22.17-.27.3a.63.63,0,0,1-.08.22c-.06.06-.12.15-.2.17a3.06,3.06,0,0,1-.41.1,1,1,0,0,1-.45,0c-.81-.23-1.5-.54-2.31-.76,0,0,0-.06,0-.07s.26,0,.39,0,0-.15,0-.15a2.86,2.86,0,0,1,.47.22,8.55,8.55,0,0,0,1,.22c.28.06.47.26.73.33s.37-.11.55-.18c0,0,0-.07,0-.09s.22-.22.28-.35,0-.25,0-.36.12-.11.14-.17a2.27,2.27,0,0,0,0-.52c.1,0,.17-.1.14-.14a.42.42,0,0,1,0-.1,1.71,1.71,0,0,1,0-.31,1.11,1.11,0,0,0-.12-.72.28.28,0,0,0-.33-.11s0,.09-.09.11a.52.52,0,0,0-.3.13c-.1.08-.1.26-.19.33a1.77,1.77,0,0,1-.5.34c-.13.06-.32,0-.34-.12-.12-.33.32-.27.55-.33a.44.44,0,0,0,.11-.12c.06-.11.08-.28.21-.34a.58.58,0,0,1,.26,0c.08,0,.14-.1.23-.14s.06-.17.09-.24.19-.2.25-.32.14-.63.34-.82.06.18.12.24a.29.29,0,0,0,.4,0c.07-.07,0-.25.12-.33a.48.48,0,0,1,.17,0c.1.07.21.17.31.11s.14-.14.22-.17a2.23,2.23,0,0,0,.36,0c.29-.13.9,0,.87-.23a1.43,1.43,0,0,0-.82-1c-.32-.16-.2-.6-.49-.85-.07-.06,0-.17-.09-.24l-.11-.08s-.09-.08-.09-.09c0-.24-.07-.46.06-.66s.2-.14.29-.21.28-.15.28-.28a3.75,3.75,0,0,1,0-.58.24.24,0,0,1,.2-.11,1.72,1.72,0,0,0,1-.13c.08-.06.08-.16.13-.23.24-.35.61-.62.59-1.07,0-.08.13-.11.16-.2S41.32,17.4,41.3,17.4Zm-6.45,7.65s0,.07,0,.07a.12.12,0,0,1-.2-.05c0-.09-.09-.19-.18-.23a.15.15,0,0,0-.2.08c-.09-.06-.17,0-.26,0s-.1-.13-.18-.22a.17.17,0,0,1,.08-.28c.09-.05.18,0,.2.14l0,0s0,.07,0,.09.19,0,.29.05.26,0,.39,0,0,.06,0,.06a.19.19,0,0,1,.16.25S34.9,25.06,34.85,25.05Z"/><path class="cls-1" d="M21.77,49.66c1.82-2.69,7.32-5.58,12.72-5.58s11.29,3.13,13.6,1.47c0,0-2.36,2.05-7.14,2.05S34.34,45.19,31,45.19s-6.84,2.69-8.31,5Z"/><path class="cls-1" d="M38.85,43.69A6.9,6.9,0,0,0,41.25,41a20.69,20.69,0,0,1,5.2-6.21s-2.46,7.76-5,8.1c0,0-.4.25.31.13s4-1.31,5.11-1.51,3.95-.83,4.7-1.58,1.07-.55,1.07-.55-3.12,5.21-8.74,5.21A30,30,0,0,1,38.85,43.69Z"/><path class="cls-1" d="M45.49,41a5.59,5.59,0,0,0,.71-2.46,20.48,20.48,0,0,1,3.77-9s.39,6.13-2.67,9.89c0,0-.18.55.21.15A34.05,34.05,0,0,1,54,34.07s2.16-1.78,2.29-2.36C56.29,31.71,54.59,40.41,45.49,41Z"/><path class="cls-1" d="M50.76,35.18A9.42,9.42,0,0,0,51,33.37c0-.84-.35-3.69-.35-4.95a10.83,10.83,0,0,1,1.1-5.24,6.24,6.24,0,0,0,.32,2.05,16.17,16.17,0,0,1,.67,3.46,10.82,10.82,0,0,1-.63,3.6,2.63,2.63,0,0,0,.83-1.06,18.19,18.19,0,0,1,3.13-4,7.28,7.28,0,0,0,2-3.12A8.84,8.84,0,0,1,56.33,30c-2.1,3-3,2.5-4.11,3.73C52.22,33.68,50.91,35.27,50.76,35.18Z"/><path class="cls-1" d="M54,28.34a8.06,8.06,0,0,0-.38-2.29,14.83,14.83,0,0,1-1.83-8.38s.32-.28.91,1.42,1.43,2.21,1.7,3.92a16.44,16.44,0,0,1,.29,2.4s.19.24.19.05a14.43,14.43,0,0,1,1.15-4.58c.94-2.1,2.2-4.08,2.09-5.47,0,0,.56,0,.47,2.3S58,23.88,54,28.34Z"/><path class="cls-1" d="M55.07,21.42a11.58,11.58,0,0,0-1.15-2.1c-.48-.5-3.77-5.29-4-7.47,0,0,.26-.15.58.4a19.18,19.18,0,0,0,2.18,2.37,7.18,7.18,0,0,1,2.1,3.92s.16.2-.16-3,1-5.21-.08-7.43c0,0,1.55.24,2.37,6.72A15,15,0,0,1,55.66,20S55.26,21.42,55.07,21.42Z"/><path class="cls-1" d="M53.88,14.31a14,14,0,0,0-2.22-1.86c-1-.6-4.07-3.64-4.62-6,0,0,.2-.26,1.18,1,.76,1,1.54.51,3.8,3.37,0,0,.32.63.48.58s-.09-.66-.09-.66a22.38,22.38,0,0,1-.48-2.42,21.77,21.77,0,0,0-1.25-4.42s3,1.73,3.48,6.64A35.13,35.13,0,0,1,53.88,14.31Z"/><path class="cls-1" d="M51.26,9.08s.21-4.27-5.43-6.45c0,0,2,4,3.42,5A14.73,14.73,0,0,1,51.26,9.08Z"/><path class="cls-1" d="M36.87,49.66c-1.82-2.69-7.32-5.58-12.73-5.58s-11.28,3.13-13.6,1.47c0,0,2.37,2.05,7.16,2.05s6.61-2.41,9.93-2.41,6.82,2.69,8.29,5Z"/><path class="cls-1" d="M19.8,43.69A7,7,0,0,1,17.37,41a20.45,20.45,0,0,0-5.18-6.21s2.45,7.76,5,8.1c0,0,.39.25-.32.13s-4-1.31-5.11-1.51-3.95-.83-4.71-1.58S6,39.38,6,39.38s3.13,5.21,8.75,5.21A30.4,30.4,0,0,0,19.8,43.69Z"/><path class="cls-1" d="M13.14,41a5.75,5.75,0,0,1-.71-2.46,20.5,20.5,0,0,0-3.75-9s-.4,6.13,2.64,9.89c0,0,.21.55-.19.15a33.93,33.93,0,0,0-6.5-5.54s-2.17-1.78-2.28-2.36C2.35,31.71,4.05,40.41,13.14,41Z"/><path class="cls-1" d="M7.88,35.18a9.42,9.42,0,0,1-.23-1.81c0-.84.35-3.69.35-4.95a10.83,10.83,0,0,0-1.1-5.24,6.24,6.24,0,0,1-.32,2.05,16.17,16.17,0,0,0-.67,3.46,10.56,10.56,0,0,0,.63,3.6,2.8,2.8,0,0,1-.84-1.06,18.25,18.25,0,0,0-3.11-4,7.37,7.37,0,0,1-2-3.12A8.91,8.91,0,0,0,2.31,30c2.09,3,3,2.5,4.11,3.73C6.42,33.68,7.73,35.27,7.88,35.18Z"/><path class="cls-1" d="M4.6,28.34A8.17,8.17,0,0,1,5,26.05a14.94,14.94,0,0,0,1.82-8.38s-.31-.28-.9,1.42S4.49,21.3,4.2,23a17,17,0,0,0-.28,2.4s-.19.24-.19.05a14.59,14.59,0,0,0-1.14-4.58C1.64,18.78.37,16.8.48,15.41c0,0-.55,0-.47,2.3S.68,23.88,4.6,28.34Z"/><path class="cls-1" d="M3.57,21.42a11,11,0,0,1,1.15-2.1c.48-.5,3.75-5.29,4-7.47,0,0-.29-.15-.6.4A18.43,18.43,0,0,1,6,14.62a7.24,7.24,0,0,0-2.1,3.92s-.15.2.17-3-1-5.21.08-7.43c0,0-1.54.24-2.38,6.72A15.17,15.17,0,0,0,3,20S3.38,21.42,3.57,21.42Z"/><path class="cls-1" d="M4.76,14.31A13.68,13.68,0,0,1,7,12.45c1-.6,4.07-3.64,4.64-6,0,0-.21-.26-1.2,1-.75,1-1.54.51-3.79,3.37,0,0-.31.63-.47.58s.07-.66.07-.66A22.38,22.38,0,0,0,6.7,8.33,21.17,21.17,0,0,1,8,3.91S4.91,5.64,4.49,10.55A32.58,32.58,0,0,0,4.76,14.31Z"/><path class="cls-1" d="M7.38,9.08s-.21-4.27,5.41-6.45c0,0-1.94,4-3.4,5A14.73,14.73,0,0,0,7.38,9.08Z"/></g></g></svg>